<?xml version="1.0" encoding="utf-8"?>
<!-- Generator: Adobe Illustrator 24.0.2, SVG Export Plug-In . SVG Version: 6.00 Build 0)  -->
<svg version="1.1" id="Capa_1" xmlns="http://www.w3.org/2000/svg" xmlns:xlink="http://www.w3.org/1999/xlink" x="0px" y="0px"
	 viewBox="0 0 42.53 42.53" style="enable-background:new 0 0 42.53 42.53;" xml:space="preserve">
<style type="text/css">
	.st0{fill:#FFFFFF;}
</style>
<path class="st0" d="M35.82,32.3c-0.26,1.91-1.55,3.57-3.35,4.3c-0.88,0.37-1.84,0.48-2.8,0.37c-0.92-0.11-1.84-0.41-2.8-0.96
	c-1.32-0.74-2.65-1.88-4.19-3.57c2.43-2.98,3.9-5.7,4.45-8.13c0.26-1.14,0.29-2.17,0.18-3.13c-0.15-0.92-0.48-1.77-0.99-2.5
	c-1.14-1.66-3.05-2.61-5.19-2.61c-2.13,0-4.05,0.99-5.19,2.61c-0.52,0.73-0.85,1.58-0.99,2.5c-0.16,1.04-0.09,2.11,0.18,3.13
	c0.55,2.43,2.06,5.19,4.45,8.17c-1.51,1.69-2.87,2.84-4.2,3.57c-0.96,0.55-1.88,0.85-2.8,0.96c-0.95,0.1-1.91-0.02-2.8-0.37
	C8,35.9,6.72,34.25,6.46,32.34c-0.11-0.92-0.03-1.84,0.33-2.87c0.11-0.37,0.29-0.74,0.48-1.18c0.26-0.59,0.55-1.22,0.85-1.84
	l0.04-0.07c2.54-5.48,5.26-11.08,8.09-16.52l0.11-0.22c0.29-0.55,0.59-1.14,0.88-1.69c0.29-0.59,0.62-1.14,1.03-1.62
	c0.77-0.88,1.8-1.36,2.95-1.36c1.14,0,2.17,0.48,2.94,1.36c0.41,0.48,0.74,1.03,1.03,1.62c0.29,0.55,0.59,1.14,0.88,1.69l0.11,0.22
	c2.79,5.47,5.48,10.99,8.06,16.56v0.03c0.29,0.59,0.55,1.25,0.85,1.84c0.18,0.44,0.37,0.81,0.48,1.18
	C35.86,30.42,35.98,31.34,35.82,32.3L35.82,32.3z M21.14,30.57c-1.99-2.5-3.27-4.86-3.72-6.84c-0.18-0.85-0.22-1.58-0.11-2.25
	c0.07-0.55,0.27-1.08,0.59-1.55c0.7-0.99,1.88-1.62,3.24-1.62c1.36,0,2.57,0.59,3.24,1.62c0.29,0.44,0.52,0.96,0.59,1.55
	c0.11,0.67,0.07,1.43-0.11,2.25C24.41,25.68,23.12,28.03,21.14,30.57z M37.73,28.66c-0.18-0.44-0.37-0.92-0.55-1.32
	c-0.29-0.66-0.59-1.29-0.85-1.88l-0.04-0.04c-2.57-5.61-5.28-11.16-8.13-16.63l-0.11-0.22c-0.3-0.57-0.6-1.15-0.88-1.73
	c-0.37-0.66-0.73-1.36-1.32-2.02c-1.18-1.47-2.87-2.28-4.67-2.28c-1.84,0-3.5,0.81-4.71,2.21c-0.56,0.66-0.96,1.36-1.32,2.02
	c-0.29,0.59-0.59,1.18-0.88,1.73l-0.11,0.22c-2.83,5.52-5.59,11.11-8.13,16.63l-0.04,0.07c-0.26,0.59-0.55,1.21-0.85,1.88
	c-0.18,0.41-0.37,0.85-0.55,1.32c-0.48,1.36-0.62,2.65-0.44,3.98c0.4,2.74,2.22,5.06,4.78,6.11c0.96,0.41,1.95,0.59,2.98,0.59
	c0.29,0,0.66-0.03,0.96-0.07c1.22-0.15,2.47-0.55,3.68-1.25c1.51-0.85,2.95-2.06,4.56-3.83c1.62,1.76,3.09,2.98,4.56,3.83
	c1.22,0.7,2.47,1.1,3.68,1.25c0.29,0.04,0.66,0.07,0.96,0.07c1.03,0,2.06-0.18,2.98-0.59c2.57-1.03,4.38-3.39,4.78-6.11
	C38.36,31.31,38.22,30.02,37.73,28.66L37.73,28.66z"/>
</svg>
